<svg xmlns="http://www.w3.org/2000/svg" viewBox="0 0 220.83 149.58"><defs><style>.cls-1{fill:#fff;}</style></defs><g id="图层_2" data-name="图层 2"><g id="图层_2-2" data-name="图层 2"><polygon class="cls-1" points="45.21 93.7 46.92 97.48 66.89 97.48 63.61 93.7 45.21 93.7"/><polygon class="cls-1" points="20.59 97.28 20.55 97.48 33.58 97.48 34.16 93.7 21.14 93.7 20.59 97.28"/><polygon class="cls-1" points="35.9 81.48 35.9 81.48 36.95 74.23 43.53 89.59 61.12 89.64 65.82 56.76 72.5 51.38 53.54 51.38 50.19 74.62 40.23 51.38 27.14 51.38 22.85 81.47 15.92 81.47 14.28 82.42 35.76 82.42 35.9 81.48"/><polygon class="cls-1" points="35.66 82.99 1.65 82.99 0 83.94 35.52 83.94 35.66 82.99"/><polygon class="cls-1" points="14.85 93.7 14.85 94.4 16.21 95.09 20.31 95.09 20.55 93.7 14.85 93.7"/><path class="cls-1" d="M132.76,94l21.3-42.59H140.62L129.08,74.47,131.81,94h-1.7l-2.46-16.64v0l-.17-1.25,0-.27h0l-3.3-24.45H105.29l6.21,6.17L116,90.47l.65,3.5h-4.4l-3.35-3.5H4.44L7.33,92.7h85.6v.87H67.32l3.9,3.91h70.35L147.91,94Zm-25.68-.38h-9.8v-.94h9.8Z"/><polygon class="cls-1" points="220.83 93.97 164.69 93.97 166.63 80.48 169.78 80.48 178.52 80.48 176.92 91.84 177.1 91.84 177.1 91.86 211.59 91.86 208.26 90.61 190.57 90.61 192.21 79.13 180 79.13 182.81 77.79 192.41 77.79 192.5 77.1 203.22 77.1 200.41 75.76 192.69 75.76 195.18 58.43 188.17 51.42 157.31 51.42 149.81 65.95 155.74 63.44 180.97 63.44 180.26 68.46 154.86 68.46 153.75 76.25 169.91 76.25 171.54 77.36 169.78 77.36 153.59 77.36 142.89 77.36 141.26 80.48 153.15 80.48 151.22 94.02 145.07 97.52 164.19 97.52 164.19 97.48 217.59 97.48 220.83 93.97"/><path class="cls-1" d="M64.31,88.15l6.91.21,24.37.14,7.6.1,4.48-30.17-7-7H76.84l-8,6.69ZM81.54,63.44H93.46L90.31,85.5H78.39Z"/><path class="cls-1" d="M72,135.67a.3.3,0,0,1,.1-.24.32.32,0,0,1,.24-.1l1.67,0h3.81A1.52,1.52,0,0,1,79.57,137a1.34,1.34,0,0,1-.41,1.06,1.41,1.41,0,0,1,.6,1.28v.26a1.65,1.65,0,0,1-1.86,1.8h-4l-1.6-.05a.36.36,0,0,1-.24-.1A.33.33,0,0,1,72,141Zm1.47,3.93c0,.39.15.5.52.5h3.84c.38,0,.54-.09.54-.5v-.26a.57.57,0,0,0-.12-.42.54.54,0,0,0-.42-.13H74c-.38,0-.52.16-.52.55Zm.23-2.25a.51.51,0,0,0,.37.1h3.69c.36,0,.47-.1.47-.45a.45.45,0,0,0-.1-.35c0-.06-.13-.11-.37-.11H74.07c-.37,0-.45.11-.45.46C73.62,137.2,73.64,137.29,73.7,137.35Z"/><path class="cls-1" d="M84.71,140.86l3.45-5.29a.46.46,0,0,1,.17-.18.35.35,0,0,1,.18,0h.82a.43.43,0,0,1,.37.23l3.43,5.3a.35.35,0,0,1,.06.18.29.29,0,0,1-.14.26.45.45,0,0,1-.18,0H92a.29.29,0,0,1-.17,0,.39.39,0,0,1-.18-.19l-.18-.26c-.1-.17-.21-.34-.29-.45H86.68l-.46.71a.63.63,0,0,1-.18.19.65.65,0,0,1-.18,0H85a.45.45,0,0,1-.18,0,.31.31,0,0,1-.14-.26A.6.6,0,0,1,84.71,140.86Zm5.55-1.76s0,0,0,0L89,137s0,0-.07,0l-1.33,2.07s0,0,0,0Z"/><path class="cls-1" d="M102.84,135.34a.4.4,0,0,1,.25.1.38.38,0,0,1,.09.24v.64a.32.32,0,0,1-.34.34h-2.68V141a.33.33,0,0,1-.1.24.29.29,0,0,1-.24.09h-.74a.3.3,0,0,1-.24-.09.36.36,0,0,1-.09-.24v-4.36H96.06a.36.36,0,0,1-.24-.09.33.33,0,0,1-.09-.25v-.64a.32.32,0,0,1,.33-.34Z"/><path class="cls-1" d="M115.09,135.34a.4.4,0,0,1,.25.1.38.38,0,0,1,.09.24v.64a.33.33,0,0,1-.34.34h-2.68V141a.33.33,0,0,1-.1.24.29.29,0,0,1-.24.09h-.74a.3.3,0,0,1-.24-.09A.32.32,0,0,1,111,141v-4.36h-2.69a.36.36,0,0,1-.24-.09.34.34,0,0,1-.1-.25v-.64a.33.33,0,0,1,.34-.34Z"/><path class="cls-1" d="M120.33,135.68a.38.38,0,0,1,.09-.24.38.38,0,0,1,.25-.1h.76a.32.32,0,0,1,.24.1.34.34,0,0,1,.09.24v3.94c0,.2,0,.29.09.33a.46.46,0,0,0,.34.09h5.06a.32.32,0,0,1,.33.34V141a.36.36,0,0,1-.09.24.32.32,0,0,1-.24.09H122a1.48,1.48,0,0,1-1.65-1.65Z"/><path class="cls-1" d="M139,135.34a.33.33,0,0,1,.34.34v.64a.34.34,0,0,1-.1.25.34.34,0,0,1-.24.09h-4.57c-.16,0-.36,0-.49.11a.32.32,0,0,0-.07.23v.35a.34.34,0,0,0,.39.35H139a.3.3,0,0,1,.33.33v.64a.31.31,0,0,1-.33.33h-4.59c-.27,0-.44,0-.46.34v.36a.34.34,0,0,0,.09.24.46.46,0,0,0,.27.1h4.81a.31.31,0,0,1,.33.34V141a.4.4,0,0,1-.08.24.34.34,0,0,1-.25.09h-4.91a1.5,1.5,0,0,1-1.69-1.65V137a1.5,1.5,0,0,1,1.69-1.66Z"/><polygon class="cls-1" points="69.72 137.57 52.96 137.57 51.05 136.14 69.72 136.14 69.72 137.57"/><polygon class="cls-1" points="69.72 140.56 63.19 140.56 61.28 139.13 69.72 139.13 69.72 140.56"/><polygon class="cls-1" points="141.51 137.57 158.27 137.57 160.17 136.14 141.51 136.14 141.51 137.57"/><polygon class="cls-1" points="141.51 140.56 148.04 140.56 149.94 139.13 141.51 139.13 141.51 140.56"/><path class="cls-1" d="M113.55,38.52l.47.06V31.52l-.47-.05Z"/><path class="cls-1" d="M140.91,45.57l-.17-.18-5,5c.05.06.11.12.16.19Z"/><path class="cls-1" d="M80.74,45.48l3.18,3.18a35.45,35.45,0,0,1,24.39-10.41V34.34l1.08-1v-2.1h-.33a42.51,42.51,0,0,0-31.17,13.6l.56.55Z"/><path class="cls-1" d="M76.49,46.41l5,5,.16-.19-5-5Z"/><path class="cls-1" d="M75,99.32a42.71,42.71,0,0,0,22.72,15.57v-7.32a35.68,35.68,0,0,1-13.44-8.25Z"/><path class="cls-1" d="M75.74,50.22l0-.72-1-1c-.41.55-.8,1.11-1.18,1.68Z"/><path class="cls-1" d="M103.45,109l-.46-.08V116l.46.06Z"/><path class="cls-1" d="M139.16,99.36l.07,0H133.9a35.48,35.48,0,0,1-24.84,10.13h-.37v5.8l-1.07,1v.17c.48,0,1,0,1.44,0a42.57,42.57,0,0,0,34.1-17.09Z"/><path class="cls-1" d="M144.5,50.22c-.59-.88-1.21-1.74-1.86-2.57l-2.52,2.51v.06Z"/><path class="cls-1" d="M119.33,39.74a35.75,35.75,0,0,1,14.08,8.14l1.73-1.73,2.3-.1,2-2a42.58,42.58,0,0,0-22.34-12l2.21,2.41Z"/><path class="cls-1" d="M120.54,99.34a27.85,27.85,0,0,1-11.48,2.47l-1.12,0V101h-1.87l-.58.55a27.87,27.87,0,0,1-7.89-2.24H88.22a33,33,0,0,0,10.2,5.7v9.84l2.45,2.67v13.26l3.33,2.8v16l2.67-2.11V115.92l1.07-1v-8.13l1.12,0a32.8,32.8,0,0,0,20.88-7.47ZM104.2,130.92l-2-1.26V106.1c.65.14,1.3.26,2,.35Z"/><polygon class="cls-1" points="76.24 50.23 76.25 50.24 76.82 50.24 76.77 50.28 79.65 50.28 70.73 41.37 72.18 41.05 81.41 50.28 84.84 50.28 80.53 45.97 78.23 45.87 72.28 39.92 69.53 40.16 62.35 32.99 62.1 35.13 76.27 49.3 76.24 50.23"/><path class="cls-1" d="M94,50.26a27.81,27.81,0,0,1,15-4.4h0v2.7h1.87l1.87-1.78v-.66c.66.09,1.32.19,2,.33v1l2.31-.4A27.83,27.83,0,0,1,124,50.22h1.2v0h.32l.15,1.12A28,28,0,0,1,134,61.17l2.67-5.34c-.25-.39-.5-.78-.77-1.16L138.56,52l.88-1.76h.18V50L153.78,35.8l-.25-2.14-7.17,7.17-2.76-.24-5.95,5.95-2.29.1-3.45,3.45a33,33,0,0,0-13.33-7.82V34.7L116.14,32V18.78L112.8,16V0l-2.66,2.11V33.67l-1.08,1v6.19h0a32.88,32.88,0,0,0-23,9.4Zm49.67-8.54,1.45.31L134.41,52.77c-.27-.32-.54-.63-.82-.94ZM112.8,18.66l2,1.27V41.37c-.65-.12-1.31-.22-2-.29Z"/><path class="cls-1" d="M75.24,107.45a47.82,47.82,0,0,1-6.5-8.13H67.55a49.45,49.45,0,0,0,7,8.84l-2.89,2.89-.11,1.77-8.11,8.12h2.11l11.94-11.45-2.23-2Z"/><path class="cls-1" d="M146.65,111,143.72,108a49.08,49.08,0,0,0,6.82-8.68h-1.16a47.79,47.79,0,0,1-7.29,8.9h0l-1.26,1.15,11.94,11.45h2.11l-8.11-8.11Z"/></g></g></svg>