<svg xmlns="http://www.w3.org/2000/svg" viewBox="0 0 309.2 56.28"><defs><style>.cls-1{fill:#6299c3;}</style></defs><g id="图层_2" data-name="图层 2"><g id="图层_2-2" data-name="图层 2"><polygon class="cls-1" points="84.27 42.33 85.98 46.1 105.95 46.1 102.68 42.33 84.27 42.33"/><polygon class="cls-1" points="59.65 45.91 59.62 46.1 72.64 46.1 73.23 42.33 60.2 42.33 59.65 45.91"/><polygon class="cls-1" points="78.94 31.61 25.05 31.61 23.41 32.56 79.4 32.56 78.94 31.61"/><polygon class="cls-1" points="107.37 31.61 91.85 31.61 91.85 32.56 105.44 32.56 107.37 31.61"/><polygon class="cls-1" points="79.77 31.62 79.77 31.61 79.77 31.61 79.77 31.62"/><polygon class="cls-1" points="90.37 15.52 89.26 23.24 85.95 15.52 81.93 15.52 83.58 14.57 85.54 14.57 79.29 0 79.13 0 66.21 0 61.74 0 60.09 0.94 66.08 0.94 61.91 30.1 54.99 30.1 53.34 31.04 74.83 31.04 74.96 30.1 74.96 30.1 76.02 22.86 79.77 31.61 88.63 31.61 89.08 32.56 80.17 32.56 82.6 38.21 100.18 38.26 103.44 15.52 90.37 15.52"/><polygon class="cls-1" points="92.6 0 90.51 14.57 103.57 14.57 104.89 5.38 111.56 0 92.6 0"/><polygon class="cls-1" points="53.92 42.33 53.92 43.02 55.27 43.71 59.38 43.71 59.62 42.33 53.92 42.33"/><path class="cls-1" d="M179.83,42.59,201.13,0H187.69L176.14,23.09l2.73,19.5h-1.7L174.71,26v0l-.17-1.25,0-.27h0L171.2,0H152.36l6.2,6.17L163,39.09l.65,3.5h-4.4l-11.9-3.5H0l2.89,2.23H140v.87H114.38l3.91,3.9h70.34L195,42.59Zm-25.68-.38h-9.81v-.94H150Z"/><polygon class="cls-1" points="309.2 42.59 215.09 42.59 217.03 29.1 220.18 29.1 228.92 29.1 227.31 40.46 227.5 40.46 227.5 40.48 287.52 40.48 277.96 39.23 240.97 39.23 242.61 27.75 230.4 27.75 233.21 26.41 242.8 26.41 242.9 25.72 268.85 25.72 266.04 24.39 243.09 24.39 245.57 7.05 238.57 0.04 207.71 0.04 200.21 14.57 206.14 12.06 231.37 12.06 230.66 17.08 205.26 17.08 204.15 24.87 220.31 24.87 221.94 25.98 220.18 25.98 203.99 25.98 193.29 25.98 191.66 29.1 203.55 29.1 201.62 42.64 195.47 46.14 214.58 46.14 214.59 46.1 293.3 46.1 309.2 42.59"/><polygon class="cls-1" points="143.92 0.04 120.13 0.04 112.13 6.73 111.32 12.06 124.83 12.06 125.96 12.06 136.75 12.06 133.93 31.78 131.3 34.12 121.67 34.12 124.32 15.59 124.34 15.59 124.33 15.55 124.44 14.73 110.92 14.73 110.92 14.74 105.92 14.74 104.96 15.59 110.79 15.59 107.6 36.78 114.5 36.98 138.88 37.13 146.47 37.22 150.96 7.05 143.92 0.04"/><path class="cls-1" d="M121.52,50.55a.32.32,0,0,1,.34-.33l1.67,0h3.82a1.52,1.52,0,0,1,1.74,1.69,1.36,1.36,0,0,1-.4,1.06,1.44,1.44,0,0,1,.59,1.28v.27a1.65,1.65,0,0,1-1.86,1.79h-4l-1.6-.05a.42.42,0,0,1-.24-.09.35.35,0,0,1-.1-.25ZM123,54.49c0,.38.15.49.53.49h3.84c.37,0,.53-.09.53-.49v-.27c0-.24,0-.36-.12-.42a.54.54,0,0,0-.41-.12h-3.84c-.39,0-.53.15-.53.54Zm.23-2.25a.55.55,0,0,0,.37.09h3.7c.35,0,.46-.09.46-.45a.47.47,0,0,0-.09-.35c0-.06-.14-.1-.37-.1h-3.7c-.37,0-.45.1-.45.45C123.14,52.08,123.16,52.18,123.22,52.24Z"/><path class="cls-1" d="M134.24,55.75l3.44-5.3a.67.67,0,0,1,.17-.17.27.27,0,0,1,.18-.05h.83a.41.41,0,0,1,.36.23l3.43,5.3a.35.35,0,0,1,.06.17.32.32,0,0,1-.13.27.74.74,0,0,1-.18,0h-.89a.39.39,0,0,1-.17,0,.5.5,0,0,1-.18-.19l-.18-.27-.28-.45h-4.5l-.46.72a.63.63,0,0,1-.18.19l-.18,0h-.89a.74.74,0,0,1-.18,0,.32.32,0,0,1-.13-.27A.39.39,0,0,1,134.24,55.75ZM139.78,54c.05,0,.06,0,0-.05l-1.33-2.07s0,0-.07,0l-1.33,2.07s0,.05,0,.05Z"/><path class="cls-1" d="M152.36,50.23a.37.37,0,0,1,.25.09.4.4,0,0,1,.09.24v.65a.32.32,0,0,1-.34.33h-2.68V55.9a.34.34,0,0,1-.09.24.32.32,0,0,1-.24.1h-.74a.29.29,0,0,1-.24-.1.32.32,0,0,1-.1-.24V51.54h-2.69a.36.36,0,0,1-.24-.09.34.34,0,0,1-.09-.24v-.65a.31.31,0,0,1,.33-.33Z"/><path class="cls-1" d="M164.61,50.23a.37.37,0,0,1,.25.09.4.4,0,0,1,.09.24v.65a.32.32,0,0,1-.34.33h-2.68V55.9a.32.32,0,0,1-.1.24.29.29,0,0,1-.24.1h-.74a.32.32,0,0,1-.24-.1.34.34,0,0,1-.09-.24V51.54h-2.69a.36.36,0,0,1-.24-.09.3.3,0,0,1-.09-.24v-.65a.31.31,0,0,1,.33-.33Z"/><path class="cls-1" d="M169.85,50.56a.4.4,0,0,1,.09-.24.37.37,0,0,1,.25-.09H171a.3.3,0,0,1,.24.09.32.32,0,0,1,.09.24V54.5a.49.49,0,0,0,.09.34.55.55,0,0,0,.34.08h5.06a.33.33,0,0,1,.34.34v.64a.36.36,0,0,1-.1.24.33.33,0,0,1-.24.1h-5.26a1.49,1.49,0,0,1-1.66-1.66Z"/><path class="cls-1" d="M188.56,50.23a.32.32,0,0,1,.34.33v.65a.32.32,0,0,1-.1.24.34.34,0,0,1-.24.09H184c-.16,0-.36,0-.48.11a.4.4,0,0,0-.08.23v.36c0,.24.15.34.39.34h4.66a.31.31,0,0,1,.33.33v.64a.3.3,0,0,1-.33.33h-4.59c-.26,0-.44,0-.46.35v.35a.36.36,0,0,0,.09.24.43.43,0,0,0,.27.1h4.81a.31.31,0,0,1,.33.34v.64a.33.33,0,0,1-.08.24.34.34,0,0,1-.25.1h-4.91A1.5,1.5,0,0,1,182,54.58v-2.7a1.5,1.5,0,0,1,1.69-1.65Z"/><polygon class="cls-1" points="119.24 52.46 102.48 52.46 100.58 51.02 119.24 51.02 119.24 52.46"/><polygon class="cls-1" points="119.24 55.45 112.71 55.45 110.8 54.02 119.24 54.02 119.24 55.45"/><polygon class="cls-1" points="191.03 52.46 207.79 52.46 209.69 51.02 191.03 51.02 191.03 52.46"/><polygon class="cls-1" points="191.03 55.45 197.56 55.45 199.47 54.02 191.03 54.02 191.03 55.45"/></g></g></svg>